<svg width="18" height="21" viewBox="0 0 18 21" fill="none" xmlns="http://www.w3.org/2000/svg">
<path d="M17.3034 10.6664C16.8644 9.93031 16.1165 9.4829 15.2993 9.47277C14.5683 9.45926 13.8912 9.79862 13.4286 10.3828L13.4269 10.3811C13.1045 10.3169 12.7803 10.2511 12.4595 10.1903C12.4241 9.98434 12.3785 9.76316 12.2839 9.54537C12.181 9.30563 12.0543 9.08277 11.9311 8.86835L13.822 6.1974C14.1867 6.28182 14.5362 6.29533 14.8806 6.2413C16.1654 6.03363 17.0856 5.04596 17.2257 3.72568C17.354 2.52697 16.5993 1.34007 15.4394 0.906166C15.3027 0.853827 15.1659 0.816684 15.0461 0.784606C14.9988 0.771099 14.9515 0.759281 14.9059 0.745774L14.8249 0.722137H14.0449L13.947 0.759281C13.9334 0.762657 13.9216 0.767722 13.9047 0.776164C12.9542 0.973699 12.1894 1.62708 11.8551 2.53203C11.5495 3.35425 11.6525 4.25244 12.1219 4.98687C11.7133 5.5609 11.3064 6.13494 10.8978 6.71066L10.2833 7.57846C9.12001 7.18001 8.01077 7.35054 7.03492 8.08158L4.66112 6.23792C4.72865 5.95091 4.73878 5.65038 4.69151 5.33973C4.51255 4.13764 3.43201 3.29178 2.18265 3.37789C1.01432 3.45386 0.0536573 4.47193 0.0401506 5.64532C0.0283323 6.53 0.413272 7.23911 1.15107 7.69496C1.84667 8.12548 2.5946 8.17613 3.32734 7.84522C4.04825 8.40743 4.94476 9.1064 5.85815 9.80875C5.60827 10.6462 5.67074 11.4515 6.04555 12.2079C6.1688 12.4561 6.31906 12.6789 6.46764 12.8933L6.37984 13.0166C5.95945 13.6109 5.5323 14.2153 5.11528 14.8079C4.90593 14.7454 4.68813 14.688 4.45177 14.6678C3.59578 14.5969 2.79213 14.8754 2.1894 15.4528C1.57822 16.037 1.24562 16.8525 1.2777 17.6916C1.30978 18.5324 1.72173 19.3242 2.40719 19.8628C3.07746 20.3895 3.91994 20.6006 4.72021 20.4385C5.70451 20.241 6.51491 19.5859 6.88634 18.6877C7.22739 17.8672 7.16492 16.9335 6.72595 16.1417C7.26791 15.3819 7.75584 14.6931 8.20493 14.0498C8.76377 14.2119 9.33105 14.2237 9.89327 14.0836C10.4639 14.9345 11.0802 15.8445 11.769 16.8542C11.3858 17.4822 11.3047 18.2015 11.5326 18.9494C11.8619 20.0215 12.8732 20.7221 13.979 20.7221C14.1783 20.7221 14.3792 20.7002 14.5801 20.6529C15.8497 20.3524 16.6956 19.1064 16.5031 17.8148C16.3883 17.05 15.9578 16.3814 15.3196 15.983C14.7725 15.6419 14.1141 15.5254 13.4742 15.6521C13.0808 15.0696 12.6858 14.4854 12.2907 13.903L11.6829 13.0014C11.8787 12.7752 12.0425 12.527 12.1759 12.2619C12.2181 12.2703 12.2586 12.2805 12.3008 12.2889C12.5288 12.3362 12.7651 12.3868 13.0066 12.4223C13.0184 12.4645 13.0302 12.4983 13.042 12.5253C13.0437 12.532 13.0471 12.5371 13.0488 12.5422C13.4101 13.6463 14.548 14.3166 15.7113 14.1056C16.4423 13.9722 17.0704 13.4707 17.3912 12.7667C17.7069 12.0762 17.6731 11.2911 17.3034 10.6664ZM14.4281 11.8111C14.4298 11.3451 14.8029 10.9754 15.2689 10.9754C15.7366 10.9771 16.1046 11.3485 16.1046 11.8145C16.103 12.2822 15.7315 12.6519 15.2655 12.6502C14.7979 12.6485 14.4264 12.2754 14.4281 11.8111ZM15.0376 18.1829C15.0326 18.7654 14.5497 19.2381 13.9638 19.233C13.3695 19.2263 12.8917 18.74 12.9002 18.1491C12.9103 17.5683 13.4033 17.0855 13.9773 17.0956C14.5733 17.1057 15.0427 17.5869 15.0376 18.1829ZM4.19345 18.9713C3.40838 18.9646 2.78369 18.3331 2.79045 17.5514C2.79551 16.7714 3.4337 16.1468 4.21709 16.1569C4.99034 16.1653 5.62009 16.8001 5.61503 17.565C5.60827 18.3433 4.96671 18.9764 4.19345 18.9713ZM7.20375 10.766C7.20544 9.73446 8.07662 8.86497 9.11326 8.86159C10.155 8.85653 11.0295 9.73277 11.0278 10.7762C11.0261 11.8162 10.1634 12.6755 9.1217 12.6755C8.07324 12.6772 7.20375 11.8111 7.20375 10.766ZM14.4501 2.22982C15.144 2.22982 15.7248 2.80723 15.7248 3.50113C15.7248 4.19673 15.149 4.77076 14.4501 4.77076C13.7477 4.77076 13.1788 4.20179 13.1805 3.50113C13.1821 2.79879 13.7511 2.22982 14.4501 2.22982ZM2.37512 6.55533C1.91251 6.54858 1.5377 6.16533 1.54108 5.7061C1.54614 5.24518 1.92602 4.87206 2.392 4.87544C2.85291 4.87713 3.23448 5.26544 3.22435 5.72298C3.21591 6.18559 2.83097 6.56208 2.37512 6.55533Z" fill="black"/>
</svg>
