<svg width="23" height="21" viewBox="0 0 23 21" fill="none" xmlns="http://www.w3.org/2000/svg">
<path d="M21.1966 6.99142V10.9914M9.44659 4.49141H5.99659C4.31644 4.49141 3.47636 4.49141 2.83462 4.81839C2.27013 5.10601 1.81119 5.56496 1.52357 6.12944C1.19659 6.77118 1.19659 7.61126 1.19659 9.29142L1.1966 10.4914C1.1966 11.4233 1.1966 11.8892 1.34884 12.2568C1.55183 12.7468 1.94117 13.1362 2.43123 13.3392C2.79877 13.4914 3.26471 13.4914 4.1966 13.4914V17.7414C4.1966 17.9736 4.1966 18.0897 4.20623 18.1874C4.29975 19.137 5.05101 19.8883 6.00056 19.9818C6.09834 19.9914 6.21443 19.9914 6.4466 19.9914C6.67877 19.9914 6.79485 19.9914 6.89263 19.9818C7.84219 19.8883 8.59344 19.137 8.68697 18.1874C8.6966 18.0897 8.6966 17.9736 8.6966 17.7414V13.4914H9.4466C11.213 13.4914 13.3738 14.4383 15.0409 15.3471C16.0134 15.8772 16.4997 16.1423 16.8182 16.1033C17.1135 16.0671 17.3368 15.9345 17.5099 15.6925C17.6966 15.4316 17.6966 14.9094 17.6966 13.8651V4.1177C17.6966 3.07341 17.6966 2.55126 17.5099 2.2903C17.3368 2.04831 17.1135 1.91571 16.8182 1.87954C16.4997 1.84053 16.0134 2.10561 15.0409 2.63577C13.3738 3.54452 11.213 4.49141 9.44659 4.49141Z" stroke="black" stroke-width="2" stroke-linecap="round" stroke-linejoin="round"/>
</svg>


