<svg width="23" height="23" viewBox="0 0 23 23" fill="none" xmlns="http://www.w3.org/2000/svg">
<path d="M11.2686 21.6406C16.7914 21.6406 21.2686 17.1634 21.2686 11.6406C21.2686 6.11775 16.7914 1.6406 11.2686 1.6406C5.74571 1.6406 1.26855 6.11775 1.26855 11.6406C1.26855 17.1634 5.74571 21.6406 11.2686 21.6406Z" stroke="black" stroke-width="2" stroke-linecap="round" stroke-linejoin="round"/>
<path d="M16.1253 13.7305L16.1208 13.7121C15.9047 12.9181 15.0336 12.4395 14.1793 12.6458C13.3757 12.8392 12.849 13.6343 13.0032 14.4165C13.1169 14.9891 13.4815 15.3932 14.0645 15.5984C13.7584 16.1181 13.082 16.4897 12.4776 16.4325C11.5974 16.3482 10.8805 15.5909 10.8805 14.7439L10.8794 11.8626H11.5873C12.1253 11.8626 12.6644 11.8626 13.2024 11.8626C13.7764 11.8615 14.194 11.4844 14.1951 10.9648C14.1951 10.7012 14.0949 10.4656 13.9115 10.3004C13.7303 10.1372 13.4838 10.0508 13.199 10.0508C12.7117 10.0497 12.2243 10.0508 11.737 10.0508H10.8805V9.5495C10.8805 9.0212 10.8816 8.49399 10.8794 7.96569C10.8783 7.80904 10.8749 7.62538 10.8445 7.44172C10.6644 6.36352 9.77528 5.61483 8.6329 5.57918C7.55581 5.54461 6.58451 6.31166 6.37292 7.36069C6.32565 7.59405 6.33015 7.83821 6.38642 8.0478C6.49109 8.44753 6.93229 8.72735 7.37348 8.67117C7.83155 8.61283 8.14894 8.3006 8.22322 7.83605C8.24011 7.72909 8.26374 7.61025 8.31101 7.54003C8.3898 7.42011 8.56425 7.36933 8.72407 7.42011C8.88952 7.47305 8.98856 7.61242 8.98968 7.79284C8.99306 8.45402 8.99193 9.1152 8.99081 9.7753V10.0508H8.85125C8.54624 10.0508 8.24348 10.0497 7.94185 10.0519C7.41062 10.0551 7.00544 10.4354 6.99869 10.9356C6.99194 11.4531 7.39036 11.8517 7.92497 11.8615C8.18946 11.8658 8.45733 11.8658 8.71619 11.8636C8.80735 11.8636 8.89964 11.8626 8.99081 11.8626C8.99081 12.0332 8.98968 12.2039 8.98968 12.3725C8.98743 13.0077 8.98631 13.6073 8.99419 14.2199C8.99531 14.2836 8.99531 14.3474 8.99644 14.4111C8.99869 14.7709 9.00094 15.1425 9.0921 15.5034C9.46014 16.9629 10.4382 17.8856 11.9205 18.1719C12.1816 18.2226 12.4371 18.2475 12.6858 18.2475C13.7595 18.2475 14.7072 17.7797 15.459 16.8711C16.0589 16.1462 16.3391 14.8249 16.1253 13.7305Z" fill="black"/>
</svg>
