<svg width="21" height="23" viewBox="0 0 21 23" fill="none" xmlns="http://www.w3.org/2000/svg">
<path d="M19.0601 6.71184L10.5601 11.4341M10.5601 11.4341L2.06009 6.71184M10.5601 11.4341L10.5601 20.9341M19.5601 15.4927V7.37554C19.5601 7.0329 19.5601 6.86158 19.5096 6.70878C19.465 6.5736 19.392 6.44952 19.2955 6.34483C19.1864 6.22649 19.0367 6.14329 18.7372 5.97689L11.3372 1.86578C11.0535 1.70822 10.9117 1.62944 10.7616 1.59856C10.6287 1.57122 10.4916 1.57122 10.3587 1.59856C10.2085 1.62944 10.0667 1.70822 9.78309 1.86578L2.38309 5.97689C2.08357 6.14329 1.9338 6.22649 1.82475 6.34483C1.72828 6.44952 1.65527 6.5736 1.6106 6.70878C1.56012 6.86158 1.56012 7.0329 1.56012 7.37554V15.4927C1.56012 15.8353 1.56012 16.0066 1.6106 16.1594C1.65527 16.2946 1.72828 16.4187 1.82475 16.5234C1.93381 16.6417 2.08357 16.7249 2.38309 16.8913L9.78309 21.0024C10.0667 21.16 10.2085 21.2387 10.3587 21.2696C10.4916 21.297 10.6287 21.297 10.7616 21.2696C10.9117 21.2387 11.0535 21.16 11.3371 21.0024L18.7372 16.8913C19.0367 16.7249 19.1864 16.6417 19.2955 16.5234C19.392 16.4187 19.465 16.2946 19.5096 16.1594C19.5601 16.0066 19.5601 15.8353 19.5601 15.4927Z" stroke="black" stroke-width="2" stroke-linecap="round" stroke-linejoin="round"/>
</svg>
