<svg width="19" height="23" viewBox="0 0 19 23" fill="none" xmlns="http://www.w3.org/2000/svg">
<path d="M11.3405 10.0527H5.34055M7.34055 14.0527H5.34055M13.3405 6.05273H5.34055M17.3405 5.85273V16.2527C17.3405 17.9329 17.3405 18.773 17.0136 19.4147C16.7259 19.9792 16.267 20.4381 15.7025 20.7257C15.0608 21.0527 14.2207 21.0527 12.5405 21.0527H6.14055C4.46039 21.0527 3.62031 21.0527 2.97857 20.7257C2.41409 20.4381 1.95515 19.9792 1.66753 19.4147C1.34055 18.773 1.34055 17.9329 1.34055 16.2527V5.85273C1.34055 4.17257 1.34055 3.33249 1.66753 2.69076C1.95515 2.12627 2.41409 1.66733 2.97857 1.37971C3.62031 1.05273 4.46039 1.05273 6.14055 1.05273H12.5405C14.2207 1.05273 15.0608 1.05273 15.7025 1.37971C16.267 1.66733 16.7259 2.12627 17.0136 2.69076C17.3405 3.33249 17.3405 4.17257 17.3405 5.85273Z" stroke="black" stroke-width="2" stroke-linecap="round" stroke-linejoin="round"/>
</svg>
