<svg width="23" height="23" viewBox="0 0 23 23" fill="none" xmlns="http://www.w3.org/2000/svg">
<path d="M4.88039 13.1795H18.0161C19.0289 13.1795 19.5353 13.1795 19.9385 12.9907C20.2936 12.8243 20.592 12.5573 20.7966 12.2227C21.0288 11.8428 21.0847 11.3395 21.1965 10.3329L21.7815 5.06785C21.8157 4.76039 21.8328 4.60666 21.7833 4.48766C21.7399 4.38316 21.6623 4.29648 21.5633 4.24178C21.4505 4.1795 21.2958 4.1795 20.9864 4.1795H4.38039M1.88025 1.1795H3.12869C3.39331 1.1795 3.52562 1.1795 3.62914 1.22983C3.72027 1.27413 3.79578 1.34508 3.84569 1.43327C3.90237 1.53344 3.91062 1.6655 3.92713 1.9296L4.83337 16.4294C4.84987 16.6935 4.85813 16.8256 4.91481 16.9257C4.96471 17.0139 5.04023 17.0849 5.13136 17.1292C5.23488 17.1795 5.36719 17.1795 5.63181 17.1795H18.8802M7.38025 20.6795H7.39025M16.3802 20.6795H16.3902M7.88025 20.6795C7.88025 20.9556 7.65639 21.1795 7.38025 21.1795C7.10411 21.1795 6.88025 20.9556 6.88025 20.6795C6.88025 20.4034 7.10411 20.1795 7.38025 20.1795C7.65639 20.1795 7.88025 20.4034 7.88025 20.6795ZM16.8802 20.6795C16.8802 20.9556 16.6564 21.1795 16.3802 21.1795C16.1041 21.1795 15.8802 20.9556 15.8802 20.6795C15.8802 20.4034 16.1041 20.1795 16.3802 20.1795C16.6564 20.1795 16.8802 20.4034 16.8802 20.6795Z" stroke="black" stroke-width="2" stroke-linecap="round" stroke-linejoin="round"/>
</svg>
