<svg width="19" height="22" viewBox="0 0 19 22" fill="none" xmlns="http://www.w3.org/2000/svg">
<path d="M11.1862 1.26894V5.39948C11.1862 5.95953 11.1862 6.23955 11.2952 6.45347C11.3911 6.64163 11.544 6.79461 11.7322 6.89048C11.9461 6.99948 12.2261 6.99948 12.7862 6.99948H16.9167M11.1862 15.9994H5.18619M13.1862 11.9994H5.18619M17.1862 8.98763V16.1994C17.1862 17.8796 17.1862 18.7196 16.8592 19.3614C16.5716 19.9259 16.1126 20.3848 15.5482 20.6724C14.9064 20.9994 14.0663 20.9994 12.3862 20.9994H5.98619C4.30603 20.9994 3.46595 20.9994 2.82422 20.6724C2.25973 20.3848 1.80079 19.9259 1.51317 19.3614C1.18619 18.7196 1.18619 17.8796 1.18619 16.1994V5.79941C1.18619 4.11925 1.18619 3.27917 1.51317 2.63743C1.80079 2.07295 2.25973 1.61401 2.82422 1.32639C3.46595 0.999405 4.30603 0.999405 5.98619 0.999405H9.19796C9.93173 0.999405 10.2986 0.999405 10.6439 1.0823C10.95 1.15579 11.2426 1.277 11.511 1.44148C11.8138 1.62701 12.0732 1.88644 12.5921 2.40529L15.7803 5.59352C16.2992 6.11237 16.5586 6.3718 16.7441 6.67455C16.9086 6.94297 17.0298 7.2356 17.1033 7.54171C17.1862 7.88697 17.1862 8.25386 17.1862 8.98763Z" stroke="black" stroke-width="2" stroke-linecap="round" stroke-linejoin="round"/>
</svg>
