<svg width="22" height="22" viewBox="0 0 22 22" fill="none" xmlns="http://www.w3.org/2000/svg">
<path d="M21.5226 17.8938C21.4549 17.6487 21.2369 17.5297 20.8421 17.3138L20.8329 17.3088C20.7609 17.2696 20.6811 17.2254 20.5935 17.177C20.4688 17.1072 20.4353 17.0651 20.4218 16.8834C20.4004 16.5885 20.4659 16.4709 20.7046 16.379C20.8151 16.3362 20.9063 16.2785 20.996 16.2222C21.0452 16.1916 21.0908 16.1624 21.1357 16.1396C21.3345 16.0377 21.4606 15.8995 21.509 15.7306C21.5596 15.5539 21.524 15.3665 21.3993 15.1564C21.0537 14.5728 20.7467 14.0406 20.4609 13.529C20.3534 13.3381 20.2151 13.2191 20.0484 13.1749C19.8781 13.13 19.7007 13.1649 19.5062 13.2818C19.435 13.3245 19.363 13.3637 19.2853 13.4065C19.15 13.4813 19.0103 13.5582 18.8757 13.6523C18.8215 13.6908 18.8144 13.695 18.6441 13.6231C18.3491 13.4984 18.2665 13.3452 18.3178 13.0153C18.3534 12.7873 18.3484 12.5971 18.3014 12.4332C18.2451 12.2351 18.0634 11.9893 17.7977 11.9181C17.7521 11.9053 17.7471 11.9038 15.7286 11.8924C15.5113 11.8924 15.3388 11.9558 15.2142 12.0805C15.0902 12.2052 15.0275 12.3791 15.0289 12.5964C15.0289 12.6434 15.0296 12.6897 15.0303 12.7367L15.031 12.7667C15.0339 12.9754 15.036 13.1906 15.0239 13.3951C15.0232 13.4058 15.0118 13.4328 15.0033 13.4449C14.7097 13.6694 14.6285 13.7292 14.1789 13.4706C14.1732 13.467 13.9552 13.3374 13.8462 13.2718C13.6638 13.1621 13.4885 13.1279 13.3246 13.1713C13.16 13.2141 13.0232 13.3295 12.9178 13.5141C12.5437 14.1688 12.2331 14.7061 11.9395 15.2048C11.8341 15.3851 11.8035 15.5575 11.8476 15.7178C11.8932 15.8831 12.0094 16.0156 12.2039 16.1232C12.4219 16.2436 12.6499 16.3761 12.9 16.5286C12.9342 16.5493 12.9534 16.5621 12.9627 16.5692C13.0304 16.8015 12.9057 17.0901 12.677 17.2219L12.6257 17.2511C12.5808 17.2767 12.5302 17.3052 12.4789 17.3387C12.4433 17.3622 12.3984 17.3865 12.3499 17.4128C12.2046 17.4912 12.0236 17.5895 11.931 17.7712C11.8548 17.9201 11.8441 18.032 12.397 19.115C12.6563 19.623 12.9256 20.1153 12.9335 20.1288C13.0368 20.3013 13.17 20.4096 13.3296 20.4495C13.4899 20.4901 13.6602 20.4573 13.8348 20.3526C13.9103 20.307 13.988 20.2635 14.0678 20.2186C14.2074 20.1402 14.3513 20.0597 14.4917 19.9643C14.543 19.9293 14.5508 19.9236 14.7318 19.9985C15.0125 20.1153 15.0866 20.2564 15.0367 20.5813C15.0161 20.7174 15.0218 20.8442 15.0275 20.9674L15.0282 20.9774C15.0296 21.0052 15.031 21.0323 15.0318 21.0601C15.0439 21.4698 15.2868 21.7141 15.6865 21.7141C16.4304 21.7113 17.0823 21.7113 17.6858 21.7141C18.0755 21.7141 18.3135 21.4811 18.3235 21.0921L18.327 20.9717C18.3334 20.758 18.3399 20.5364 18.3213 20.3141C18.3156 20.2379 18.3135 20.2172 18.4802 20.0904C18.7253 19.9044 18.8835 19.9094 19.1307 20.1117C19.2219 20.1858 19.321 20.2371 19.4086 20.2834C19.4513 20.3055 19.492 20.3269 19.529 20.349C19.7057 20.4573 19.8781 20.4915 20.0413 20.4495C20.208 20.4067 20.3477 20.2892 20.4567 20.0989C20.5571 19.9229 20.6583 19.7484 20.7595 19.5731L20.7766 19.5432C20.8835 19.3586 20.9896 19.1748 21.0951 18.9896C21.1478 18.8977 21.1955 18.815 21.2418 18.7366C21.4663 18.3505 21.591 18.1381 21.5226 17.8938ZM17.155 19.9635C17.165 20.1467 17.1635 20.3326 17.1614 20.5321H16.2245C16.2309 20.3176 16.2366 20.0961 16.2024 19.8745C16.1639 19.6301 15.9722 19.4491 15.7906 19.3045L15.2248 18.914L15.2156 18.9083C14.719 18.5998 14.4133 18.5984 14.0036 18.9055C13.9153 18.9718 13.8098 19.0288 13.6887 19.0929C13.5419 18.8399 13.3966 18.5899 13.2484 18.3348L13.2099 18.2685H13.2106C13.3816 18.1652 13.5426 18.0676 13.7065 17.9807C14.035 17.8061 14.1369 17.6116 14.1248 17.1827L14.1191 16.3662L14.1176 16.3441C14.097 16.1424 14.0051 15.8731 13.8113 15.7214C13.626 15.5746 13.4279 15.4649 13.2178 15.348L13.2142 15.3459L13.6837 14.5315L13.6973 14.5393C13.8732 14.6384 14.0393 14.7317 14.2031 14.8336C14.4974 15.016 14.7817 15.0032 15.0724 14.793C15.264 14.6533 15.4885 14.5251 15.7599 14.3997C16.0777 14.2536 16.2323 14.005 16.2209 13.6601C16.2145 13.482 16.2159 13.3024 16.2173 13.1108H17.1607C17.1628 13.2853 17.165 13.4642 17.155 13.6373C17.1343 14.0043 17.2896 14.2565 17.6302 14.4089C17.8775 14.5201 18.0962 14.6455 18.28 14.7823C18.5728 15.0017 18.8778 15.0153 19.1863 14.8222C19.3402 14.726 19.5034 14.632 19.6772 14.5336L19.6836 14.5301L20.161 15.3544L20.1524 15.3594C19.975 15.4649 19.8083 15.5639 19.6402 15.6508C19.3338 15.8104 19.2005 16.0619 19.2319 16.4196C19.2419 16.5329 19.2383 16.6519 19.2347 16.7787C19.2298 16.939 19.2248 17.1057 19.2483 17.2767C19.2732 17.4677 19.3765 17.7505 19.5832 17.918C19.7591 18.0598 19.9487 18.1631 20.1539 18.2742C19.9978 18.545 19.8454 18.8114 19.6865 19.0872L19.6715 19.0786C19.4941 18.9796 19.3274 18.8863 19.1628 18.7865C18.8571 18.6013 18.5728 18.6176 18.2928 18.8357C18.1076 18.9789 17.8867 19.1071 17.653 19.2054C17.5226 19.2582 17.1265 19.4242 17.155 19.9635Z" fill="black"/>
<path d="M19.1393 16.8065C19.1372 15.467 18.0428 14.374 16.7019 14.3705C16.6969 14.3705 16.6919 14.3705 16.6869 14.3705C16.0278 14.3705 15.4115 14.6241 14.9484 15.0858C14.4889 15.544 14.2359 16.1567 14.2366 16.8108C14.2366 18.1424 15.326 19.2368 16.6655 19.2503H16.6919C17.3381 19.2503 17.9494 18.9974 18.4133 18.5379C18.8821 18.074 19.14 17.4591 19.1393 16.8065ZM15.807 15.8838C16.0449 15.6537 16.3527 15.5269 16.6755 15.5269H16.6962C17.403 15.5383 17.9537 16.1083 17.9501 16.8243C17.948 17.1684 17.8162 17.4869 17.5782 17.7206C17.3417 17.9529 17.0225 18.0804 16.6776 18.0804H16.6698C16.3314 18.0783 16.0136 17.9436 15.7756 17.7007C15.5369 17.457 15.4073 17.1357 15.4122 16.7958C15.4172 16.4502 15.5576 16.1261 15.807 15.8838Z" fill="black"/>
<path d="M11.0399 14.2354H6.53989C5.14432 14.2354 4.44654 14.2354 3.87874 14.4077C2.60034 14.7955 1.59993 15.7959 1.21213 17.0743C1.03989 17.6421 1.03989 18.3398 1.03989 19.7354M13.5399 6.23541C13.5399 8.72069 11.5252 10.7354 9.03989 10.7354C6.55461 10.7354 4.53989 8.72069 4.53989 6.23541C4.53989 3.75013 6.55461 1.73541 9.03989 1.73541C11.5252 1.73541 13.5399 3.75013 13.5399 6.23541Z" stroke="black" stroke-width="2" stroke-linecap="round" stroke-linejoin="round"/>
</svg>
