<svg width="20" height="21" viewBox="0 0 20 21" fill="none" xmlns="http://www.w3.org/2000/svg">
<path d="M6.13784 18.0218C4.39141 17.9844 2.64297 17.947 0.896532 17.9057C0.436838 17.8959 0.366579 17.825 0.390668 17.3647C0.438845 16.436 0.474978 15.5034 0.567319 14.5787C0.707836 13.1778 1.46262 12.1488 2.67308 11.4209C3.64265 10.8365 4.70657 10.4824 5.78655 10.1636C5.89495 10.1321 6.05554 10.1912 6.16193 10.2561C7.5912 11.0982 9.04857 11.1513 10.4999 10.3486C10.8352 10.1617 11.0961 10.1499 11.4374 10.2659C12.3788 10.5866 13.3203 10.9054 14.1735 11.4228C14.8821 11.8537 15.4742 12.3967 15.8617 13.1345C15.944 13.29 15.94 13.3923 15.8095 13.5241C14.6091 14.738 13.4127 15.9559 12.2283 17.1836C12.0476 17.3706 11.9171 17.6086 11.7847 17.8329C11.7144 17.9529 11.6381 18.0021 11.4976 18.0021C9.93383 18.0041 8.37007 18.012 6.80631 18.0179C6.58349 18.0179 6.36067 18.0179 6.13985 18.0179C6.13784 18.0179 6.13784 18.0198 6.13784 18.0218Z" fill="#272C3F"/>
<path d="M8.44438 0.912512C10.9777 0.922349 13.0112 2.93313 13.0032 5.422C12.9952 7.90498 10.9456 9.90002 8.40624 9.89608C5.87492 9.89018 3.82938 7.85776 3.84142 5.36298C3.85347 2.90558 5.92711 0.902674 8.44438 0.912512Z" fill="#272C3F"/>
<path d="M14.587 19.7631C13.8102 19.0332 13.0494 18.317 12.2625 17.5772C13.3244 16.4951 14.3702 15.4248 15.4321 14.3427C16.211 15.0765 16.9698 15.7927 17.7527 16.5305C16.6928 17.6107 15.6449 18.681 14.587 19.7631Z" fill="#272C3F"/>
<path d="M17.9735 16.3122C17.1906 15.5743 16.4258 14.8542 15.6489 14.1184C16.1769 13.5813 16.6888 13.052 17.2107 12.5365C17.3392 12.4106 17.5138 12.4205 17.6483 12.5444C18.2706 13.1229 18.8909 13.7052 19.5071 14.2896C19.6316 14.4076 19.6557 14.5709 19.5352 14.6968C19.0274 15.2359 18.5055 15.7632 17.9735 16.3122Z" fill="#272C3F"/>
<path d="M14.3441 19.9657C13.9225 20.0935 13.5371 20.2077 13.1537 20.3257C12.6639 20.4752 12.1781 20.6366 11.6843 20.7664C11.5659 20.7979 11.3812 20.7684 11.2969 20.6917C11.2246 20.6248 11.2065 20.4398 11.2407 20.3296C11.4876 19.5486 11.7526 18.7734 12.0115 17.9962C12.0256 17.9549 12.0456 17.9136 12.0798 17.8309C12.8365 18.5451 13.5753 19.2416 14.3441 19.9657Z" fill="#272C3F"/>
</svg>
