<svg width="20" height="18" viewBox="0 0 20 18" fill="none" xmlns="http://www.w3.org/2000/svg">
<path d="M2.90202 1.09348C2.38103 1.09348 1.86774 1.09348 1.35446 1.09348C1.01997 1.09194 0.805718 0.902351 0.807259 0.609485C0.808801 0.322784 1.01381 0.131651 1.34058 0.128568C1.94173 0.123944 2.54288 0.123944 3.14402 0.127026C3.41069 0.128568 3.57562 0.276542 3.66039 0.583281C3.83765 1.21526 4.018 1.84723 4.18293 2.48229C4.22146 2.62872 4.28774 2.66109 4.42801 2.66109C8.78709 2.65647 13.1446 2.65647 17.5037 2.65647C17.9677 2.65647 18.4301 2.65647 18.8941 2.65801C19.3195 2.65955 19.5229 2.92929 19.4089 3.33931C18.6151 6.16778 17.8197 8.99625 17.0259 11.8263C17.0151 11.8617 17.0058 11.8987 16.9966 11.9357C16.9288 12.2424 16.8147 12.3349 16.4941 12.3365C15.3165 12.338 14.1388 12.338 12.9627 12.338C10.8017 12.338 8.6422 12.338 6.48116 12.338C6.09118 12.338 5.97712 12.2517 5.8723 11.8725C4.8966 8.31341 3.91935 4.75739 2.9421 1.19984C2.93439 1.17055 2.92052 1.14281 2.90202 1.09348ZM10.7308 8.48913C10.478 8.21784 10.2437 7.96505 10.0079 7.71534C9.789 7.48259 9.51309 7.45022 9.31117 7.63057C9.09845 7.8217 9.1 8.10069 9.31888 8.34423C9.60712 8.66639 9.89536 8.987 10.1836 9.30915C10.4688 9.62822 10.7246 9.65134 11.0591 9.37697C12.2136 8.43518 13.3681 7.49338 14.5211 6.5485C14.592 6.48993 14.6614 6.41903 14.703 6.33887C14.7939 6.16315 14.74 5.98127 14.5797 5.85641C14.3824 5.70227 14.1527 5.70073 13.96 5.85641C13.3342 6.36662 12.7084 6.87836 12.0826 7.38857C11.6387 7.7508 11.1917 8.11457 10.7308 8.48913Z" fill="#272C3F"/>
<path d="M9.76449 15.1124C9.75061 16.2161 8.90438 17.0438 7.80691 17.0284C6.72793 17.013 5.90482 16.1529 5.91869 15.06C5.93256 14.0026 6.79421 13.1703 7.86086 13.1841C8.946 13.1949 9.77836 14.0381 9.76449 15.1124Z" fill="#272C3F"/>
<path d="M13.7999 15.1031C13.8076 14.0041 14.6461 13.1718 15.7328 13.1841C16.8041 13.1964 17.6488 14.0612 17.6441 15.1401C17.638 16.2022 16.7717 17.0407 15.6927 17.0283C14.6261 17.016 13.7922 16.1682 13.7999 15.1031Z" fill="#272C3F"/>
</svg>
