<svg width="20" height="19" viewBox="0 0 20 19" fill="none" xmlns="http://www.w3.org/2000/svg">
<path d="M19.8008 16.7366C17.4578 19.0355 13.583 19.0122 10.9186 16.4281C9.59153 15.1426 8.35003 13.7715 6.90378 12.2656C4.95471 14.3858 3.17929 16.3141 1.40387 18.245C1.28724 18.1725 1.17061 18.0999 1.05397 18.0273C1.00732 17.7629 0.92438 17.496 0.921788 17.2316C0.911421 13.857 0.885502 10.485 0.92438 7.11043C0.96585 3.60625 3.95685 0.713739 7.10335 0.936639C7.10335 4.59633 7.10335 8.25084 7.10335 12.3097C8.47185 10.7779 9.66151 9.44828 10.9263 8.03313C14.0391 11.0889 16.885 13.8778 19.8008 16.7366Z" fill="#272C3F"/>
<path d="M12.8884 6.04762C13.4093 4.00264 12.8754 2.24796 10.535 0.962402C13.2875 0.962402 15.672 0.962402 17.9451 0.962402C16.2681 2.64711 14.5679 4.35514 12.8884 6.04762Z" fill="#272C3F"/>
</svg>
