<svg width="23" height="21" viewBox="0 0 23 21" fill="none" xmlns="http://www.w3.org/2000/svg">
<path d="M8.49902 13.7639H6.99903C5.60346 13.7639 4.90568 13.7639 4.33788 13.9362C3.05948 14.324 2.05906 15.3244 1.67126 16.6028C1.49902 17.1706 1.49902 17.8684 1.49902 19.2639M13.999 5.76392C13.999 8.2492 11.9843 10.2639 9.49902 10.2639C7.01374 10.2639 4.99902 8.2492 4.99902 5.76392C4.99902 3.27863 7.01374 1.26392 9.49902 1.26392C11.9843 1.26392 13.999 3.27863 13.999 5.76392ZM10.499 19.2639L13.6004 18.3778C13.7489 18.3354 13.8231 18.3142 13.8924 18.2824C13.9539 18.2541 14.0124 18.2197 14.0669 18.1797C14.1284 18.1346 14.183 18.08 14.2922 17.9708L20.7491 11.514C21.4395 10.8236 21.4394 9.70425 20.7491 9.01389C20.0587 8.32354 18.9394 8.32355 18.249 9.01391L11.7922 15.4707C11.683 15.58 11.6284 15.6346 11.5833 15.696C11.5432 15.7506 11.5088 15.809 11.4806 15.8705C11.4488 15.9398 11.4276 16.0141 11.3851 16.1626L10.499 19.2639Z" stroke="#272C3F" stroke-width="2" stroke-linecap="round" stroke-linejoin="round"/>
</svg>
