<svg width="22" height="23" viewBox="0 0 22 23" fill="none" xmlns="http://www.w3.org/2000/svg">
<path d="M14.9164 8.26392V5.26392C14.9164 3.05478 13.1255 1.26392 10.9164 1.26392C8.70725 1.26392 6.91638 3.05478 6.91638 5.26392V8.26391M2.50839 9.61588L1.90839 16.0159C1.73779 17.8356 1.65249 18.7454 1.95443 19.4482C2.21968 20.0655 2.6845 20.576 3.2744 20.8977C3.94591 21.2639 4.85975 21.2639 6.68743 21.2639H15.1453C16.973 21.2639 17.8869 21.2639 18.5584 20.8977C19.1483 20.576 19.6131 20.0655 19.8783 19.4482C20.1803 18.7454 20.095 17.8356 19.9244 16.0159L19.3244 9.61588C19.1803 8.07926 19.1083 7.31095 18.7627 6.73008C18.4584 6.2185 18.0087 5.80903 17.471 5.55376C16.8604 5.26392 16.0887 5.26392 14.5453 5.26392L7.28743 5.26392C5.74407 5.26392 4.9724 5.26392 4.3618 5.55376C3.82405 5.80903 3.37439 6.2185 3.07005 6.73008C2.72448 7.31095 2.65245 8.07926 2.50839 9.61588Z" stroke="#272C3F" stroke-width="2" stroke-linecap="round" stroke-linejoin="round"/>
</svg>
