<svg width="55" height="58" viewBox="0 0 55 58" fill="none" xmlns="http://www.w3.org/2000/svg">
<path d="M23.0813 3.848C23.9405 -0.786774 30.5815 -0.786774 31.4407 3.848C32.0553 7.16339 36.1004 8.47774 38.5464 6.15678C41.9657 2.91218 47.3384 6.81567 45.3092 11.0703C43.8577 14.1138 46.3577 17.5547 49.7008 17.1147C54.3742 16.4996 56.4264 22.8156 52.284 25.065C49.3208 26.674 49.3208 30.9273 52.284 32.5363C56.4264 34.7857 54.3742 41.1017 49.7008 40.4866C46.3577 40.0466 43.8577 43.4876 45.3092 46.531C47.3384 50.7857 41.9657 54.6891 38.5464 51.4445C36.1004 49.1236 32.0553 50.4379 31.4407 53.7533C30.5815 58.3881 23.9405 58.3881 23.0813 53.7533C22.4667 50.4379 18.4216 49.1236 15.9756 51.4445C12.5563 54.6891 7.18358 50.7856 9.21275 46.531C10.6643 43.4876 8.16424 40.0466 4.82119 40.4866C0.14776 41.1017 -1.90443 34.7857 2.238 32.5363C5.20121 30.9273 5.20121 26.674 2.238 25.065C-1.90443 22.8156 0.147758 16.4996 4.82119 17.1147C8.16424 17.5547 10.6643 14.1138 9.21275 11.0703C7.18358 6.81567 12.5563 2.91218 15.9756 6.15678C18.4216 8.47774 22.4667 7.16339 23.0813 3.848Z" fill="#FF406C"/>
</svg>
