<svg width="27" height="18" viewBox="0 0 27 18" fill="none" xmlns="http://www.w3.org/2000/svg">
<path d="M9.39595 9.55167C7.5996 11.3115 5.83982 13.0361 4.07858 14.7623C3.26671 15.558 2.45338 16.3524 1.64004 17.1467C1.43671 17.3442 1.18803 17.6045 0.942276 17.3134C0.834026 17.1862 0.883763 16.8014 1.00079 16.6274C3.74505 12.5753 6.51126 8.53647 9.26722 4.49176C9.52175 4.11727 9.76605 4.08363 10.1288 4.35133C11.7189 5.52305 13.3222 6.67868 14.921 7.84017C15.0615 7.94256 15.2048 8.03911 15.3862 8.16345C17.2191 6.50899 19.0448 4.85893 20.9508 3.13718C20.2545 2.45697 19.5845 1.80308 18.9146 1.14773C18.7902 1.02486 18.6381 0.916608 18.5518 0.771788C18.4611 0.621117 18.3543 0.403157 18.404 0.268576C18.4494 0.147162 18.6937 0.0374498 18.8517 0.0330613C19.7089 0.00965606 20.5661 0.0228215 21.4233 0.0228215C22.9798 0.0228215 24.5377 0.0345237 26.0941 0.015507C26.5768 0.00965566 26.748 0.207137 26.7465 0.667928C26.7378 3.03039 26.7495 5.3914 26.729 7.75386C26.7275 7.95866 26.5768 8.20441 26.4174 8.34192C26.356 8.39604 26.0385 8.24391 25.9083 8.11372C25.2413 7.44959 24.5962 6.76353 23.9174 6.05698C22.8905 7.12777 21.9324 8.12103 20.9786 9.11868C19.469 10.7 17.9506 12.274 16.4599 13.8743C16.0928 14.2678 15.8134 14.2868 15.3921 13.9709C13.5752 12.6061 11.7394 11.2632 9.91086 9.91446C9.75727 9.79743 9.59928 9.6921 9.39595 9.55167Z" fill="#272C3F"/>
</svg>
